#!OML:ASF H:\Male1\Project 1\Capture day 1\Session 1\Male1.ASF
:FULLY-SPECIFIED
:DEGREES
1013
root -6.60224 15.2213 0.731352 346.933 247.721 10.0633
lowerback 4.80605 2.65802 -1.65513
upperback 4.58711 3.34285 -1.43317
thorax 2.0193 1.57929 -0.648389
lowerneck -2.7617 4.21452 8.80372
upperneck -0.496465 5.34315 -3.22351
head 0.665263 2.63591 -2.4545
rclavicle -5.76476e-015 4.13472e-014
rhumerus -28.4731 -4.55212 -90.521
rradius 31.9026
rwrist -15.6762
rhand -16.4039 1.77918
rfingers 7.12502
rthumb 9.81047 -27.9723
lclavicle -5.76476e-015 4.13472e-014
lhumerus -11.3811 -5.58608 80.9586
lradius 27.9282
lwrist 0.34346
lhand -23.9605 13.7401
lfingers 7.12502
lthumb 2.51552 43.705
rfemur -10.8168 0.303409 25.6005
rtibia 37.7303
rfoot -33.0435 -29.1198
rtoes -12.613
lfemur -6.07088 -14.8324 -21.7422
ltibia 29.1199
lfoot -29.2603 24.9678
ltoes 14.5533
1014
root -6.69926 15.2032 0.742899 353.606 247.966 2.69473
lowerback 3.80103 2.52524 -4.05567
upperback 4.87453 3.14419 -2.21257
thorax 2.80115 1.39683 -0.0599938
lowerneck -2.73618 4.1796 8.62408
upperneck -0.64015 5.30388 -3.18944
head 0.605613 2.6137 -2.41322
rclavicle 3.77691e-015 3.02153e-014
rhumerus -28.4506 -4.27073 -90.512
rradius 31.653
rwrist -16.0193
rhand -16.4347 1.82488
rfingers 7.12502
rthumb 9.7808 -27.928
lclavicle 3.77691e-015 3.02153e-014
lhumerus -11.6395 -4.61018 81.0594
lradius 27.8288
lwrist 0.159682
lhand -24.0553 14.0614
lfingers 7.12502
lthumb 2.42396 44.0274
rfemur -9.96965 -0.59624 22.0568
rtibia 36.6561
rfoot -33.4917 -28.8804
rtoes -13.3468
lfemur -4.89565 -15.6382 -25.4836
ltibia 28.576
lfoot -30.2261 25.8992
ltoes 14.8549
1015
root -6.71728 15.2037 0.746344 352.942 247.073 3.7168
lowerback 3.59679 2.53152 -3.71742
upperback 4.68911 3.17613 -2.05478
thorax 2.7295 1.43044 -0.0803194
lowerneck -2.86545 4.12798 8.53497
upperneck -0.571571 5.22719 -3.22411
head 0.643558 2.57597 -2.40716
rclavicle -4.41302e-014 3.33958e-014
rhumerus -28.6041 -4.26246 -90.484
rradius 31.5463
rwrist -15.9627
rhand -16.615 2.1089
rfingers 7.12502
rthumb 9.60685 -27.6521
lclavicle -4.41302e-014 3.33958e-014
lhumerus -12.0965 -3.89094 81.1757
lradius 27.8203
lwrist -0.000869945
lhand -23.9247 14.2399
lfingers 7.12502
lthumb 2.55007 44.2044
rfemur -9.98858 0.795054 22.6864
rtibia 35.3427
rfoot -34.7478 -29.1972
rtoes -11.2134
lfemur -4.85459 -15.8068 -25.0168
ltibia 28.1507
lfoot -30.9325 26.2829
ltoes 16.6995
1016
root -6.74625 15.1987 0.74909 352.995 246.359 3.85628
lowerback 3.3224 2.54766 -3.54975
upperback 4.56823 3.21964 -2.03846
thorax 2.76422 1.46139 -0.147324
lowerneck -3.0468 4.06085 8.52319
upperneck -0.379011 5.12413 -3.29615
head 0.73225 2.52698 -2.42646
rclavicle -2.88238e-014 -7.95139e-016
rhumerus -28.8073 -4.41144 -90.4539
rradius 31.3531
rwrist -15.8514
rhand -16.7242 2.55534
rfingers 7.12502
rthumb 9.50144 -27.2104
lclavicle -2.88238e-014 -7.95139e-016
lhumerus -12.6573 -3.43057 81.3335
lradius 27.8789
lwrist -0.0830035
lhand -23.7696 14.0235
lfingers 7.12502
lthumb 2.69984 43.9861
rfemur -9.78869 1.99228 22.8359
rtibia 34.0618
rfoot -35.4283 -28.7076
rtoes -8.94577
lfemur -4.67799 -15.8311 -24.9864
ltibia 27.7935
lfoot -31.4823 26.6074
ltoes 18.14
1017
root -6.78493 15.1913 0.754303 353.84 245.901 3.09883
lowerback 2.90547 2.50981 -3.6243
upperback 4.50029 3.19518 -2.13016
thorax 2.92966 1.44823 -0.182792
lowerneck -3.17621 4.00554 8.54957
upperneck -0.177538 5.043 -3.48658
head 0.821477 2.48884 -2.4931
rclavicle 1.53064e-014 1.59028e-014
rhumerus -29.0042 -4.54321 -90.3762
rradius 31.0921
rwrist -15.7589
rhand -16.7662 2.75129
rfingers 7.12502
rthumb 9.4609 -27.0163
lclavicle 1.53064e-014 1.59028e-014
lhumerus -13.2948 -2.93044 81.5727
lradius 27.912
lwrist -0.152246
lhand -23.3642 13.6145
lfingers 7.12502
lthumb 3.09142 43.5719
rfemur -9.25321 2.91781 22.4608
rtibia 32.7059
rfoot -35.5496 -27.225
rtoes -4.98726
lfemur -4.71148 -15.7566 -25.4389
ltibia 28.0365
lfoot -32.0457 26.8248
ltoes 18.4574
1018
root -6.81451 15.1903 0.756865 353.449 245.104 3.6247
lowerback 2.6575 2.5705 -3.17422
upperback 4.39974 3.29812 -2.08061
thorax 2.98308 1.51717 -0.372718
lowerneck -3.22789 3.95887 8.8152
upperneck 0.0315384 4.97749 -3.97302
head 0.918344 2.45725 -2.70517
rclavicle 7.15625e-014 -2.22639e-014
rhumerus -29.2382 -4.88154 -90.2853
rradius 30.7536
rwrist -15.5062
rhand -16.801 3.02624
rfingers 7.12502
rthumb 9.42738 -26.7429
lclavicle 7.15625e-014 -2.22639e-014
lhumerus -13.9903 -2.4244 81.7916
lradius 27.9065
lwrist -0.476509
lhand -22.522 13.444
lfingers 7.12502
lthumb 3.9047 43.388
rfemur -8.58187 4.62854 22.8787
rtibia 31.612
rfoot -35.097 -28.2762
rtoes -4.72201
lfemur -4.73025 -15.6131 -25.2515
ltibia 28.3146
lfoot -32.716 27.1091
ltoes 18.7094
